HIERARCHY
ROOT Bip001_Pelvis
{
  OFFSET 32.8599 95.8771 -27.9544
  CHANNELS 6 Xposition Yposition Zposition Zrotation Xrotation Yrotation
  JOINT Bip001_Spine
  {
    OFFSET 1.4188e-005 10.2191 -0.0116013
    CHANNELS 3 Zrotation Xrotation Yrotation
    JOINT Bip001_L_Thigh
    {
      OFFSET 11.0458 -10.2191 0.0116197
      CHANNELS 3 Zrotation Xrotation Yrotation
      JOINT Bip001_L_Calf
      {
        OFFSET -0.707118 -44.0221 0.360014
        CHANNELS 3 Zrotation Xrotation Yrotation
        JOINT Bip001_L_Foot
        {
          OFFSET -0.651902 -40.5938 -3.56146
          CHANNELS 3 Zrotation Xrotation Yrotation
          JOINT Bip001_L_Toe0
          {
            OFFSET 0.0530839 -10.2181 13.1504
            CHANNELS 3 Zrotation Xrotation Yrotation
            End Site
            {
              OFFSET -1.02532e-005 0 7.55606
            }
          }
        }
      }
    }
    JOINT Bip001_R_Thigh
    {
      OFFSET -11.0458 -10.2191 0.0115893
      CHANNELS 3 Zrotation Xrotation Yrotation
      JOINT Bip001_R_Calf
      {
        OFFSET 0.706994 -44.0221 0.35984
        CHANNELS 3 Zrotation Xrotation Yrotation
        JOINT Bip001_R_Foot
        {
          OFFSET 0.651787 -40.5938 -3.5613
          CHANNELS 3 Zrotation Xrotation Yrotation
          JOINT Bip001_R_Toe0
          {
            OFFSET -0.0531479 -10.2181 13.1504
            CHANNELS 3 Zrotation Xrotation Yrotation
            End Site
            {
              OFFSET -1.02894e-005 0 7.55606
            }
          }
        }
      }
    }
    JOINT Bip001_Spine1
    {
      OFFSET 1.87041e-005 14.5736 1.08638
      CHANNELS 3 Zrotation Xrotation Yrotation
      JOINT Bip001_Spine2
      {
        OFFSET 2.24614e-005 14.5058 -1.69078
        CHANNELS 3 Zrotation Xrotation Yrotation
        JOINT Bip001_Neck
        {
          OFFSET 2.20278e-005 15.3945 -0.489414
          CHANNELS 3 Zrotation Xrotation Yrotation
          JOINT Bip001_L_Clavicle
          {
            OFFSET 6.06036 -0.000579998 0.00836775
            CHANNELS 3 Zrotation Xrotation Yrotation
            JOINT Bip001_L_UpperArm
            {
              OFFSET 11.5509 -0.0600302 0.00193952
              CHANNELS 3 Zrotation Xrotation Yrotation
              JOINT Bip001_L_Forearm
              {
                OFFSET 25.9523 0.0806089 -2.15551
                CHANNELS 3 Zrotation Xrotation Yrotation
                JOINT Bip001_L_Hand
                {
                  OFFSET 32.2475 0.153767 1.63968
                  CHANNELS 3 Zrotation Xrotation Yrotation
                  JOINT Bip001_L_Finger0
                  {
                    OFFSET 6.04639 -2.20976 5.90322
                    CHANNELS 3 Zrotation Xrotation Yrotation
                    End Site
                    {
                      OFFSET 4.22375 -1.43895 0.606486
                    }
                  }
                  JOINT Bip001_L_Finger1
                  {
                    OFFSET 11.0826 -0.704819 -0.198153
                    CHANNELS 3 Zrotation Xrotation Yrotation
                    End Site
                    {
                      OFFSET 6.20027 -0.397518 -0.0787166
                    }
                  }
                }
              }
            }
          }
          JOINT Bip001_R_Clavicle
          {
            OFFSET -6.06036 -0.000563197 0.00835105
            CHANNELS 3 Zrotation Xrotation Yrotation
            JOINT Bip001_R_UpperArm
            {
              OFFSET -11.5509 -0.0599978 0.00190698
              CHANNELS 3 Zrotation Xrotation Yrotation
              JOINT Bip001_R_Forearm
              {
                OFFSET -25.9523 0.0806819 -2.1559
                CHANNELS 3 Zrotation Xrotation Yrotation
                JOINT Bip001_R_Hand
                {
                  OFFSET -32.2476 0.153857 1.63991
                  CHANNELS 3 Zrotation Xrotation Yrotation
                  JOINT Bip001_R_Finger0
                  {
                    OFFSET -6.04642 -2.20975 5.9032
                    CHANNELS 3 Zrotation Xrotation Yrotation
                    End Site
                    {
                      OFFSET -4.22376 -1.43894 0.606473
                    }
                  }
                  JOINT Bip001_R_Finger1
                  {
                    OFFSET -11.0826 -0.70479 -0.198183
                    CHANNELS 3 Zrotation Xrotation Yrotation
                    End Site
                    {
                      OFFSET -6.20028 -0.397501 -0.0787337
                    }
                  }
                }
              }
            }
          }
          JOINT Bip001_Head
          {
            OFFSET 1.09673e-005 11.2744 2.05948
            CHANNELS 3 Zrotation Xrotation Yrotation
            End Site
            {
              OFFSET 2.89576e-005 20.8808 -2.77728e-005
            }
          }
        }
      }
    }
  }
}
MOTION
Frames:	5
Frame Time:	0.04
33.2849 95.931 -28.3715 -0.313363 0.978577 7.26727 -0.241492 1.78642 0.0244294 5.61693 -5.62911 7.35327 -0.524934 8.44411 -16.1536 5.10337 -2.63471 -0.134998 -1.40516 -4.65043 2.57143 -2.32543 -2.2658 -0.779405 0.526277 8.59824 -0.634152 -7.03265 -7.92937 -3.18906 2.31542 -7.7464 2.27923 -0.482819 3.57272 0.0619044 -0.482357 3.57273 0.0618991 -1.42 -7.45177 -3.52667 -23.2248 6.87008 5.11692 -56.6754 44.9027 5.1323 15.5935 -9.27957 -26.1387 8.48521 2.24687 -0.772373 1.59028e-015 -9.54166e-015 -0 -3.53113e-031 -6.36111e-015 -3.18055e-015 16.8651 17.0862 35.6704 68.8645 -35.6241 35.6708 -3.09332 -11.7419 110.622 -40.191 7.10104 55.7751 -3.18055e-015 0 -0 -4.77083e-015 0 -0 1.63619 -6.77251 -4.0423 
33.2147 95.923 -28.3643 -0.421489 1.13764 7.98475 -0.242897 1.7548 0.0160957 5.75144 -5.94461 6.81999 -0.621646 8.48557 -16.4555 5.22103 -2.44869 -0.145781 -1.42276 -4.82146 2.59362 -2.14794 -2.17372 -0.570537 0.604359 8.34486 -0.743197 -7.24828 -7.77058 -3.92235 2.32842 -7.78064 2.29105 -0.4814 3.50951 0.039574 -0.481625 3.50952 0.0395403 -1.21279 -7.39093 -3.78456 -23.5098 6.67917 5.38074 -56.7892 45.2897 5.54065 15.7326 -9.5043 -26.3994 8.56449 2.09459 -0.704545 -4.77083e-015 3.18055e-015 -0 -7.95139e-015 3.18056e-015 3.18055e-015 16.4977 17.2862 36.8021 67.2241 -34.3945 34.2792 -4.68052 -12.5555 110.254 -41.1987 8.30191 56.2907 -4.77083e-015 6.36111e-015 3.18055e-015 -4.77083e-015 6.36111e-015 -1.59028e-015 1.53213 -7.01209 -4.2257 
33.1383 95.9024 -28.3669 -0.56371 1.40726 8.76338 -0.255623 1.71757 -0.0219079 5.88423 -6.45251 5.98603 -0.700337 8.65175 -16.4571 5.52936 -2.2403 -0.167793 -1.35281 -5.03582 2.57862 -1.93528 -2.16531 -0.167422 0.716426 8.03885 -0.909514 -7.52696 -7.59561 -4.83205 2.35313 -7.86008 2.31902 -0.511173 3.43521 -0.0361966 -0.511174 3.43522 -0.0361952 -0.906789 -7.45701 -4.08741 -23.6516 6.53539 5.90211 -57.0582 45.9485 5.74483 15.8891 -9.80547 -26.4954 8.45012 2.36669 -0.494085 4.77083e-015 -6.36111e-015 -3.18055e-015 7.95139e-015 -6.36111e-015 -6.36111e-015 16.0192 17.5757 37.8433 64.4963 -32.5491 31.6458 -6.16671 -14.6744 107.07 -43.7619 10.6045 58.3358 1.59028e-015 9.54166e-015 -0 1.59028e-015 6.36111e-015 3.18055e-015 1.4443 -7.08534 -4.43346 
33.0653 95.8792 -28.388 -0.758242 1.66159 9.62827 -0.262336 1.65864 -0.0310067 6.1155 -6.99606 4.85505 -0.967312 8.88109 -16.3205 6.00779 -1.99284 -0.196403 -1.313 -5.35903 2.54818 -1.68142 -2.17633 0.163204 0.814559 7.81491 -1.11341 -7.76166 -7.40034 -5.71002 2.37484 -7.92191 2.31938 -0.524096 3.31738 -0.0544847 -0.524095 3.31738 -0.0544879 -0.411909 -7.54597 -4.5489 -24.1788 6.33533 6.5243 -57.2618 46.7346 6.05598 16.3886 -9.62899 -26.4496 8.24354 2.33157 -0.539684 1.59028e-015 -1.59028e-014 3.18055e-015 1.59028e-015 -1.27222e-014 3.18055e-015 15.7818 18.0359 38.6781 59.5518 -29.6108 27.0358 -9.7961 -18.7708 99.7664 -46.1268 14.0859 61.9008 -1.59028e-015 6.36111e-015 -1.59028e-015 1.59028e-015 6.36111e-015 -2.38542e-015 1.20051 -6.86042 -4.72634 
32.9988 95.882 -28.4235 -0.867655 1.84375 10.4728 -0.279908 1.64598 -0.0651927 6.2366 -7.41966 4.15975 -1.10405 8.92718 -16.3816 6.35408 -1.69387 -0.225378 -1.16246 -5.52374 2.4594 -1.50503 -2.18177 0.168862 0.863211 7.62675 -1.2103 -7.95488 -7.22221 -6.33496 2.39904 -7.96877 2.31965 -0.561864 3.29227 -0.122344 -0.561866 3.29227 -0.122347 -0.0303903 -7.54942 -4.95504 -24.6522 6.07747 7.06656 -57.207 47.2696 6.10055 16.738 -9.53542 -26.4006 8.43836 2.32856 -0.484433 3.18055e-015 -9.54166e-015 -3.18055e-015 1.59028e-015 -6.36111e-015 -6.36111e-015 15.5544 18.4011 39.6282 56.3955 -26.8105 24.939 -11.6739 -24.3232 91.5515 -41.4915 26.3226 61.3121 1.59028e-015 1.27222e-014 -1.59028e-015 7.95139e-016 9.54167e-015 -1.59028e-015 1.10479 -6.76216 -5.01701 
